<mxfile host="app.diagrams.net" agent="Mozilla/5.0 (Windows NT 10.0; Win64; x64) AppleWebKit/537.36 (KHTML, like Gecko) Chrome/133.0.0.0 Safari/537.36" version="26.0.16">
  <diagram name="PÃ¡gina-1" id="Ui53XR2JWMhMUNGeYkTU">
    <mxGraphModel dx="1587" dy="1864" grid="1" gridSize="10" guides="1" tooltips="1" connect="1" arrows="1" fold="1" page="1" pageScale="1" pageWidth="827" pageHeight="1169" math="0" shadow="0">
      <root>
        <mxCell id="0" />
        <mxCell id="1" parent="0" />
        <mxCell id="tRAlBrqF9KuzSdwiLduv-3" style="edgeStyle=orthogonalEdgeStyle;rounded=0;orthogonalLoop=1;jettySize=auto;html=1;" edge="1" parent="1" source="tRAlBrqF9KuzSdwiLduv-1">
          <mxGeometry relative="1" as="geometry">
            <mxPoint x="-510" y="-1050" as="targetPoint" />
          </mxGeometry>
        </mxCell>
        <mxCell id="tRAlBrqF9KuzSdwiLduv-1" value="Diretoria" style="rounded=0;whiteSpace=wrap;html=1;" vertex="1" parent="1">
          <mxGeometry x="-710" y="-1080" width="130" height="60" as="geometry" />
        </mxCell>
        <mxCell id="tRAlBrqF9KuzSdwiLduv-5" style="edgeStyle=orthogonalEdgeStyle;rounded=0;orthogonalLoop=1;jettySize=auto;html=1;entryX=0;entryY=0.5;entryDx=0;entryDy=0;" edge="1" parent="1" source="tRAlBrqF9KuzSdwiLduv-4" target="tRAlBrqF9KuzSdwiLduv-6">
          <mxGeometry relative="1" as="geometry">
            <mxPoint x="-380" y="-1050" as="targetPoint" />
          </mxGeometry>
        </mxCell>
        <mxCell id="tRAlBrqF9KuzSdwiLduv-4" value="Controla" style="rhombus;whiteSpace=wrap;html=1;" vertex="1" parent="1">
          <mxGeometry x="-517" y="-1090" width="80" height="80" as="geometry" />
        </mxCell>
        <mxCell id="tRAlBrqF9KuzSdwiLduv-9" style="edgeStyle=orthogonalEdgeStyle;rounded=0;orthogonalLoop=1;jettySize=auto;html=1;" edge="1" parent="1" source="tRAlBrqF9KuzSdwiLduv-6">
          <mxGeometry relative="1" as="geometry">
            <mxPoint x="-180" y="-1050" as="targetPoint" />
          </mxGeometry>
        </mxCell>
        <mxCell id="tRAlBrqF9KuzSdwiLduv-28" style="edgeStyle=orthogonalEdgeStyle;rounded=0;orthogonalLoop=1;jettySize=auto;html=1;entryX=1;entryY=0.5;entryDx=0;entryDy=0;" edge="1" parent="1" source="tRAlBrqF9KuzSdwiLduv-6" target="tRAlBrqF9KuzSdwiLduv-25">
          <mxGeometry relative="1" as="geometry">
            <mxPoint x="-370" y="-930" as="targetPoint" />
            <Array as="points">
              <mxPoint x="-310" y="-975" />
              <mxPoint x="-370" y="-975" />
              <mxPoint x="-370" y="-945" />
            </Array>
          </mxGeometry>
        </mxCell>
        <mxCell id="tRAlBrqF9KuzSdwiLduv-6" value="Departamento" style="rounded=0;whiteSpace=wrap;html=1;" vertex="1" parent="1">
          <mxGeometry x="-370" y="-1080" width="120" height="60" as="geometry" />
        </mxCell>
        <mxCell id="tRAlBrqF9KuzSdwiLduv-12" style="edgeStyle=orthogonalEdgeStyle;rounded=0;orthogonalLoop=1;jettySize=auto;html=1;" edge="1" parent="1" source="tRAlBrqF9KuzSdwiLduv-10">
          <mxGeometry relative="1" as="geometry">
            <mxPoint x="-140" y="-930" as="targetPoint" />
          </mxGeometry>
        </mxCell>
        <mxCell id="tRAlBrqF9KuzSdwiLduv-10" value="Aloca" style="rhombus;whiteSpace=wrap;html=1;" vertex="1" parent="1">
          <mxGeometry x="-180" y="-1090" width="80" height="80" as="geometry" />
        </mxCell>
        <mxCell id="tRAlBrqF9KuzSdwiLduv-19" style="edgeStyle=orthogonalEdgeStyle;rounded=0;orthogonalLoop=1;jettySize=auto;html=1;entryX=1;entryY=0.5;entryDx=0;entryDy=0;" edge="1" parent="1" source="tRAlBrqF9KuzSdwiLduv-13" target="tRAlBrqF9KuzSdwiLduv-21">
          <mxGeometry relative="1" as="geometry">
            <mxPoint x="-280" y="-900" as="targetPoint" />
          </mxGeometry>
        </mxCell>
        <mxCell id="tRAlBrqF9KuzSdwiLduv-13" value="Funcionario" style="rounded=0;whiteSpace=wrap;html=1;" vertex="1" parent="1">
          <mxGeometry x="-200" y="-930" width="120" height="60" as="geometry" />
        </mxCell>
        <mxCell id="tRAlBrqF9KuzSdwiLduv-16" style="edgeStyle=orthogonalEdgeStyle;rounded=0;orthogonalLoop=1;jettySize=auto;html=1;entryX=0.5;entryY=1;entryDx=0;entryDy=0;" edge="1" parent="1" source="tRAlBrqF9KuzSdwiLduv-15" target="tRAlBrqF9KuzSdwiLduv-13">
          <mxGeometry relative="1" as="geometry" />
        </mxCell>
        <mxCell id="tRAlBrqF9KuzSdwiLduv-15" value="Contrata" style="rhombus;whiteSpace=wrap;html=1;" vertex="1" parent="1">
          <mxGeometry x="-180" y="-780" width="80" height="80" as="geometry" />
        </mxCell>
        <mxCell id="tRAlBrqF9KuzSdwiLduv-18" style="edgeStyle=orthogonalEdgeStyle;rounded=0;orthogonalLoop=1;jettySize=auto;html=1;entryX=0.5;entryY=1;entryDx=0;entryDy=0;" edge="1" parent="1" source="tRAlBrqF9KuzSdwiLduv-17" target="tRAlBrqF9KuzSdwiLduv-15">
          <mxGeometry relative="1" as="geometry" />
        </mxCell>
        <mxCell id="tRAlBrqF9KuzSdwiLduv-29" style="edgeStyle=orthogonalEdgeStyle;rounded=0;orthogonalLoop=1;jettySize=auto;html=1;" edge="1" parent="1" source="tRAlBrqF9KuzSdwiLduv-17">
          <mxGeometry relative="1" as="geometry">
            <mxPoint x="-670" y="-830" as="targetPoint" />
            <Array as="points">
              <mxPoint x="-580" y="-614" />
              <mxPoint x="-580" y="-614" />
            </Array>
          </mxGeometry>
        </mxCell>
        <mxCell id="tRAlBrqF9KuzSdwiLduv-17" value="ACME" style="rounded=0;whiteSpace=wrap;html=1;" vertex="1" parent="1">
          <mxGeometry x="-200" y="-644" width="120" height="60" as="geometry" />
        </mxCell>
        <mxCell id="tRAlBrqF9KuzSdwiLduv-23" style="edgeStyle=orthogonalEdgeStyle;rounded=0;orthogonalLoop=1;jettySize=auto;html=1;entryX=1;entryY=0.5;entryDx=0;entryDy=0;" edge="1" parent="1" source="tRAlBrqF9KuzSdwiLduv-21" target="tRAlBrqF9KuzSdwiLduv-22">
          <mxGeometry relative="1" as="geometry" />
        </mxCell>
        <mxCell id="tRAlBrqF9KuzSdwiLduv-21" value="Depende" style="rhombus;whiteSpace=wrap;html=1;" vertex="1" parent="1">
          <mxGeometry x="-360" y="-880" width="80" height="80" as="geometry" />
        </mxCell>
        <mxCell id="tRAlBrqF9KuzSdwiLduv-22" value="Dependente&lt;div&gt;(funcionario)&lt;/div&gt;" style="rounded=0;whiteSpace=wrap;html=1;" vertex="1" parent="1">
          <mxGeometry x="-557" y="-860" width="120" height="60" as="geometry" />
        </mxCell>
        <mxCell id="tRAlBrqF9KuzSdwiLduv-27" style="edgeStyle=orthogonalEdgeStyle;rounded=0;orthogonalLoop=1;jettySize=auto;html=1;entryX=0.5;entryY=0;entryDx=0;entryDy=0;" edge="1" parent="1" source="tRAlBrqF9KuzSdwiLduv-25" target="tRAlBrqF9KuzSdwiLduv-22">
          <mxGeometry relative="1" as="geometry" />
        </mxCell>
        <mxCell id="tRAlBrqF9KuzSdwiLduv-25" value="Aloca" style="rhombus;whiteSpace=wrap;html=1;" vertex="1" parent="1">
          <mxGeometry x="-523.5" y="-970" width="53" height="50" as="geometry" />
        </mxCell>
        <mxCell id="tRAlBrqF9KuzSdwiLduv-31" style="edgeStyle=orthogonalEdgeStyle;rounded=0;orthogonalLoop=1;jettySize=auto;html=1;" edge="1" parent="1" source="tRAlBrqF9KuzSdwiLduv-30" target="tRAlBrqF9KuzSdwiLduv-1">
          <mxGeometry relative="1" as="geometry" />
        </mxCell>
        <mxCell id="tRAlBrqF9KuzSdwiLduv-30" value="Contem" style="rhombus;whiteSpace=wrap;html=1;" vertex="1" parent="1">
          <mxGeometry x="-710" y="-910" width="80" height="80" as="geometry" />
        </mxCell>
        <mxCell id="tRAlBrqF9KuzSdwiLduv-34" style="edgeStyle=orthogonalEdgeStyle;rounded=0;orthogonalLoop=1;jettySize=auto;html=1;" edge="1" parent="1" source="tRAlBrqF9KuzSdwiLduv-33">
          <mxGeometry relative="1" as="geometry">
            <mxPoint x="-150" y="120" as="targetPoint" />
          </mxGeometry>
        </mxCell>
        <mxCell id="tRAlBrqF9KuzSdwiLduv-47" style="edgeStyle=orthogonalEdgeStyle;rounded=0;orthogonalLoop=1;jettySize=auto;html=1;entryX=0.5;entryY=0;entryDx=0;entryDy=0;" edge="1" parent="1" source="tRAlBrqF9KuzSdwiLduv-33" target="tRAlBrqF9KuzSdwiLduv-44">
          <mxGeometry relative="1" as="geometry" />
        </mxCell>
        <mxCell id="tRAlBrqF9KuzSdwiLduv-33" value="Departamento" style="rounded=0;whiteSpace=wrap;html=1;" vertex="1" parent="1">
          <mxGeometry x="-370" y="90" width="120" height="60" as="geometry" />
        </mxCell>
        <mxCell id="tRAlBrqF9KuzSdwiLduv-37" style="edgeStyle=orthogonalEdgeStyle;rounded=0;orthogonalLoop=1;jettySize=auto;html=1;" edge="1" parent="1" source="tRAlBrqF9KuzSdwiLduv-35">
          <mxGeometry relative="1" as="geometry">
            <mxPoint x="-110" y="260" as="targetPoint" />
          </mxGeometry>
        </mxCell>
        <mxCell id="tRAlBrqF9KuzSdwiLduv-35" value="coordena" style="rhombus;whiteSpace=wrap;html=1;" vertex="1" parent="1">
          <mxGeometry x="-150" y="80" width="80" height="80" as="geometry" />
        </mxCell>
        <mxCell id="tRAlBrqF9KuzSdwiLduv-39" style="edgeStyle=orthogonalEdgeStyle;rounded=0;orthogonalLoop=1;jettySize=auto;html=1;" edge="1" parent="1" source="tRAlBrqF9KuzSdwiLduv-38">
          <mxGeometry relative="1" as="geometry">
            <mxPoint x="-110" y="400" as="targetPoint" />
          </mxGeometry>
        </mxCell>
        <mxCell id="tRAlBrqF9KuzSdwiLduv-38" value="Projeto" style="rounded=0;whiteSpace=wrap;html=1;" vertex="1" parent="1">
          <mxGeometry x="-170" y="260" width="120" height="60" as="geometry" />
        </mxCell>
        <mxCell id="tRAlBrqF9KuzSdwiLduv-41" style="edgeStyle=orthogonalEdgeStyle;rounded=0;orthogonalLoop=1;jettySize=auto;html=1;" edge="1" parent="1" source="tRAlBrqF9KuzSdwiLduv-40">
          <mxGeometry relative="1" as="geometry">
            <mxPoint x="-110" y="550" as="targetPoint" />
          </mxGeometry>
        </mxCell>
        <mxCell id="tRAlBrqF9KuzSdwiLduv-40" value="Aloca" style="rhombus;whiteSpace=wrap;html=1;" vertex="1" parent="1">
          <mxGeometry x="-150" y="390" width="80" height="80" as="geometry" />
        </mxCell>
        <mxCell id="tRAlBrqF9KuzSdwiLduv-42" value="Funcionario" style="rounded=0;whiteSpace=wrap;html=1;" vertex="1" parent="1">
          <mxGeometry x="-170" y="550" width="120" height="60" as="geometry" />
        </mxCell>
        <mxCell id="tRAlBrqF9KuzSdwiLduv-45" style="edgeStyle=orthogonalEdgeStyle;rounded=0;orthogonalLoop=1;jettySize=auto;html=1;entryX=0;entryY=0.5;entryDx=0;entryDy=0;" edge="1" parent="1" source="tRAlBrqF9KuzSdwiLduv-44" target="tRAlBrqF9KuzSdwiLduv-42">
          <mxGeometry relative="1" as="geometry" />
        </mxCell>
        <mxCell id="tRAlBrqF9KuzSdwiLduv-44" value="Possui" style="rhombus;whiteSpace=wrap;html=1;" vertex="1" parent="1">
          <mxGeometry x="-350" y="540" width="80" height="80" as="geometry" />
        </mxCell>
        <mxCell id="tRAlBrqF9KuzSdwiLduv-48" value="" style="rounded=0;whiteSpace=wrap;html=1;" vertex="1" parent="1">
          <mxGeometry x="-670" y="300" width="120" height="60" as="geometry" />
        </mxCell>
      </root>
    </mxGraphModel>
  </diagram>
</mxfile>
